# xmcd
#
# Track frame offsets: 
#        150
#        9660
#        24113
#        36398
#        53281
#        64756
#        78999
#        93812
#        108302
#
# Disc length: 1645 seconds
#
# Revision: 0
# Processed by: cddbd v1.5.2PL0 Copyright (c) Steve Scherf et al.
# Submitted via: ExactAudioCopy v1.1
#
DISCID=5b066b09
DTITLE=The Rye Sisters - The Kitchen Demos
DYEAR=2016
DGENRE=Country/Pop
TTITLE0=He's Gone
TTITLE1=From this Valley
TTITLE2=Love Hurts
TTITLE3=Redemption Day
TTITLE4=Little Darlin'
TTITLE5=The Captain
TTITLE6=That's What's Up
TTITLE7=The Book of Love
TTITLE8=Truth No. 2
EXTD=
EXTT0=
EXTT1=
EXTT2=
EXTT3=
EXTT4=
EXTT5=
EXTT6=
EXTT7=
EXTT8=
PLAYORDER=
